<?xml version="1.0" encoding="UTF-8" standalone="no"?>
<svg
   xmlns:dc="http://purl.org/dc/elements/1.1/"
   xmlns:cc="http://creativecommons.org/ns#"
   xmlns:rdf="http://www.w3.org/1999/02/22-rdf-syntax-ns#"
   xmlns:svg="http://www.w3.org/2000/svg"
   xmlns="http://www.w3.org/2000/svg"
   xmlns:sodipodi="http://sodipodi.sourceforge.net/DTD/sodipodi-0.dtd"
   xmlns:inkscape="http://www.inkscape.org/namespaces/inkscape"
   width="210mm"
   height="297mm"
   viewBox="0 0 210 297"
   version="1.1"
   id="svg8"
   inkscape:version="1.0 (4035a4fb49, 2020-05-01)"
   sodipodi:docname="relgraph_workflow.svg">
  <defs
     id="defs2">
    <inkscape:path-effect
       effect="spiro"
       id="path-effect1942"
       is_visible="true"
       lpeversion="1" />
    <inkscape:path-effect
       effect="spiro"
       id="path-effect1938"
       is_visible="true"
       lpeversion="1" />
    <inkscape:path-effect
       lpeversion="1"
       is_visible="true"
       id="path-effect1934"
       effect="spiro" />
    <inkscape:path-effect
       effect="spiro"
       id="path-effect1896"
       is_visible="true"
       lpeversion="1" />
    <marker
       inkscape:stockid="Arrow1Mend"
       orient="auto"
       refY="0.0"
       refX="0.0"
       id="Arrow1Mend"
       style="overflow:visible;"
       inkscape:isstock="true">
      <path
         id="path943"
         d="M 0.0,0.0 L 5.0,-5.0 L -12.5,0.0 L 5.0,5.0 L 0.0,0.0 z "
         style="fill-rule:evenodd;stroke:#000000;stroke-width:1pt;stroke-opacity:1;fill:#000000;fill-opacity:1"
         transform="scale(0.4) rotate(180) translate(10,0)" />
    </marker>
    <marker
       inkscape:stockid="Arrow2Mstart"
       orient="auto"
       refY="0.0"
       refX="0.0"
       id="Arrow2Mstart"
       style="overflow:visible"
       inkscape:isstock="true">
      <path
         id="path958"
         style="fill-rule:evenodd;stroke-width:0.625;stroke-linejoin:round;stroke:#000000;stroke-opacity:1;fill:#000000;fill-opacity:1"
         d="M 8.7185878,4.0337352 L -2.2072895,0.016013256 L 8.7185884,-4.0017078 C 6.9730900,-1.6296469 6.9831476,1.6157441 8.7185878,4.0337352 z "
         transform="scale(0.6) translate(0,0)" />
    </marker>
    <marker
       inkscape:stockid="Arrow1Lend"
       orient="auto"
       refY="0.0"
       refX="0.0"
       id="marker1462"
       style="overflow:visible;"
       inkscape:isstock="true">
      <path
         id="path1460"
         d="M 0.0,0.0 L 5.0,-5.0 L -12.5,0.0 L 5.0,5.0 L 0.0,0.0 z "
         style="fill-rule:evenodd;stroke:#000000;stroke-width:1pt;stroke-opacity:1;fill:#000000;fill-opacity:1"
         transform="scale(0.8) rotate(180) translate(12.5,0)" />
    </marker>
    <inkscape:path-effect
       effect="spiro"
       id="path-effect1458"
       is_visible="true"
       lpeversion="1" />
    <marker
       inkscape:stockid="Arrow1Lend"
       orient="auto"
       refY="0.0"
       refX="0.0"
       id="Arrow1Lend"
       style="overflow:visible;"
       inkscape:isstock="true">
      <path
         id="path937"
         d="M 0.0,0.0 L 5.0,-5.0 L -12.5,0.0 L 5.0,5.0 L 0.0,0.0 z "
         style="fill-rule:evenodd;stroke:#000000;stroke-width:1pt;stroke-opacity:1;fill:#000000;fill-opacity:1"
         transform="scale(0.8) rotate(180) translate(12.5,0)" />
    </marker>
    <marker
       inkscape:stockid="Arrow1Lstart"
       orient="auto"
       refY="0.0"
       refX="0.0"
       id="Arrow1Lstart"
       style="overflow:visible"
       inkscape:isstock="true">
      <path
         id="path934"
         d="M 0.0,0.0 L 5.0,-5.0 L -12.5,0.0 L 5.0,5.0 L 0.0,0.0 z "
         style="fill-rule:evenodd;stroke:#000000;stroke-width:1pt;stroke-opacity:1;fill:#000000;fill-opacity:1"
         transform="scale(0.8) translate(12.5,0)" />
    </marker>
    <inkscape:path-effect
       effect="bspline"
       id="path-effect850"
       is_visible="true"
       lpeversion="1"
       weight="33.333333"
       steps="2"
       helper_size="0"
       apply_no_weight="true"
       apply_with_weight="true"
       only_selected="false" />
    <inkscape:path-effect
       effect="powerstroke"
       id="path-effect844"
       is_visible="true"
       lpeversion="1"
       offset_points="2.167537,2.7462332"
       sort_points="true"
       interpolator_type="CentripetalCatmullRom"
       interpolator_beta="0.75"
       start_linecap_type="round"
       linejoin_type="spiro"
       miter_limit="4"
       scale_width="1"
       end_linecap_type="round" />
    <inkscape:path-effect
       effect="simplify"
       id="path-effect842"
       is_visible="true"
       lpeversion="1"
       steps="1"
       threshold="0.0042328942"
       smooth_angles="0"
       helper_size="0"
       simplify_individual_paths="false"
       simplify_just_coalesce="false"
       step="1" />
    <inkscape:path-effect
       effect="bspline"
       id="path-effect839"
       is_visible="true"
       lpeversion="1"
       weight="33.333333"
       steps="2"
       helper_size="0"
       apply_no_weight="true"
       apply_with_weight="true"
       only_selected="false" />
    <inkscape:path-effect
       effect="bspline"
       id="path-effect835"
       is_visible="true"
       lpeversion="1"
       weight="33.333333"
       steps="2"
       helper_size="0"
       apply_no_weight="true"
       apply_with_weight="true"
       only_selected="false" />
    <marker
       inkscape:isstock="true"
       style="overflow:visible"
       id="Arrow1Lend-2"
       refX="0"
       refY="0"
       orient="auto"
       inkscape:stockid="Arrow1Lend">
      <path
         transform="matrix(-0.8,0,0,-0.8,-10,0)"
         style="fill:#000000;fill-opacity:1;fill-rule:evenodd;stroke:#000000;stroke-width:1pt;stroke-opacity:1"
         d="M 0,0 5,-5 -12.5,0 5,5 Z"
         id="path937-4" />
    </marker>
    <marker
       inkscape:isstock="true"
       style="overflow:visible"
       id="Arrow1Lend-1"
       refX="0"
       refY="0"
       orient="auto"
       inkscape:stockid="Arrow1Lend">
      <path
         transform="matrix(-0.8,0,0,-0.8,-10,0)"
         style="fill:#000000;fill-opacity:1;fill-rule:evenodd;stroke:#000000;stroke-width:1pt;stroke-opacity:1"
         d="M 0,0 5,-5 -12.5,0 5,5 Z"
         id="path937-5" />
    </marker>
    <marker
       inkscape:stockid="Arrow1Lend"
       orient="auto"
       refY="0"
       refX="0"
       id="Arrow1Lend-1-2"
       style="overflow:visible"
       inkscape:isstock="true">
      <path
         id="path937-5-0"
         d="M 0,0 5,-5 -12.5,0 5,5 Z"
         style="fill:#000000;fill-opacity:1;fill-rule:evenodd;stroke:#000000;stroke-width:1pt;stroke-opacity:1"
         transform="matrix(-0.8,0,0,-0.8,-10,0)" />
    </marker>
    <marker
       inkscape:isstock="true"
       style="overflow:visible"
       id="Arrow1Lend-1-2-5"
       refX="0"
       refY="0"
       orient="auto"
       inkscape:stockid="Arrow1Lend">
      <path
         transform="matrix(-0.8,0,0,-0.8,-10,0)"
         style="fill:#000000;fill-opacity:1;fill-rule:evenodd;stroke:#000000;stroke-width:1pt;stroke-opacity:1"
         d="M 0,0 5,-5 -12.5,0 5,5 Z"
         id="path937-5-0-1" />
    </marker>
    <marker
       inkscape:isstock="true"
       style="overflow:visible"
       id="Arrow1Lend-1-2-6"
       refX="0"
       refY="0"
       orient="auto"
       inkscape:stockid="Arrow1Lend">
      <path
         transform="matrix(-0.8,0,0,-0.8,-10,0)"
         style="fill:#000000;fill-opacity:1;fill-rule:evenodd;stroke:#000000;stroke-width:1pt;stroke-opacity:1"
         d="M 0,0 5,-5 -12.5,0 5,5 Z"
         id="path937-5-0-2" />
    </marker>
    <marker
       inkscape:isstock="true"
       style="overflow:visible"
       id="Arrow1Lend-1-2-7"
       refX="0"
       refY="0"
       orient="auto"
       inkscape:stockid="Arrow1Lend">
      <path
         transform="matrix(-0.8,0,0,-0.8,-10,0)"
         style="fill:#000000;fill-opacity:1;fill-rule:evenodd;stroke:#000000;stroke-width:1pt;stroke-opacity:1"
         d="M 0,0 5,-5 -12.5,0 5,5 Z"
         id="path937-5-0-6" />
    </marker>
    <marker
       inkscape:stockid="Arrow1Lend"
       orient="auto"
       refY="0"
       refX="0"
       id="Arrow1Lend-1-2-7-2"
       style="overflow:visible"
       inkscape:isstock="true">
      <path
         id="path937-5-0-6-3"
         d="M 0,0 5,-5 -12.5,0 5,5 Z"
         style="fill:#000000;fill-opacity:1;fill-rule:evenodd;stroke:#000000;stroke-width:1pt;stroke-opacity:1"
         transform="matrix(-0.8,0,0,-0.8,-10,0)" />
    </marker>
  </defs>
  <sodipodi:namedview
     id="base"
     pagecolor="#ffffff"
     bordercolor="#666666"
     borderopacity="1.0"
     inkscape:pageopacity="0.0"
     inkscape:pageshadow="2"
     inkscape:zoom="1.4142136"
     inkscape:cx="404.66672"
     inkscape:cy="166.2268"
     inkscape:document-units="mm"
     inkscape:current-layer="layer1"
     inkscape:document-rotation="0"
     showgrid="false"
     showguides="false"
     inkscape:guide-bbox="true"
     inkscape:snap-global="false"
     inkscape:snap-object-midpoints="true"
     inkscape:snap-center="true"
     inkscape:window-width="1920"
     inkscape:window-height="986"
     inkscape:window-x="-11"
     inkscape:window-y="-11"
     inkscape:window-maximized="1">
    <sodipodi:guide
       position="144.99372,213.87918"
       orientation="0,-1"
       id="guide889" />
    <sodipodi:guide
       position="41.159507,112.53057"
       orientation="0,-1"
       id="guide893" />
    <sodipodi:guide
       position="87.922789,264.69289"
       orientation="1,0"
       id="guide926" />
    <sodipodi:guide
       position="102.83202,264.69289"
       orientation="1,0"
       id="guide928" />
    <sodipodi:guide
       position="117.51648,112.47432"
       orientation="1,0"
       id="guide930" />
    <sodipodi:guide
       id="guide964"
       orientation="1,0"
       position="68.659375,251.49167" />
    <sodipodi:guide
       id="guide1159"
       orientation="1,0"
       position="40.919456,68.10752" />
  </sodipodi:namedview>
  <metadata
     id="metadata5">
    <rdf:RDF>
      <cc:Work
         rdf:about="">
        <dc:format>image/svg+xml</dc:format>
        <dc:type
           rdf:resource="http://purl.org/dc/dcmitype/StillImage" />
        <dc:title />
      </cc:Work>
    </rdf:RDF>
  </metadata>
  <g
     inkscape:label="Layer 1"
     inkscape:groupmode="layer"
     id="layer1">
    <path
       style="fill:none;stroke:#a1a1a1;stroke-width:1.8475;stroke-linecap:butt;stroke-linejoin:miter;stroke-miterlimit:4;stroke-dasharray:none;stroke-opacity:1"
       d="M 33.33621,245.02039 47.248478,220.30665"
       id="path1894"
       inkscape:path-effect="#path-effect1896"
       inkscape:original-d="m 33.33621,245.02039 c 4.637671,-8.23766 9.2751,-16.47557 13.912268,-24.71374" />
    <path
       style="fill:none;stroke:#a1a1a1;stroke-width:1.8475;stroke-linecap:butt;stroke-linejoin:miter;stroke-miterlimit:4;stroke-dasharray:none;stroke-opacity:1"
       d="m 33.422621,244.93399 27.392417,-0.0864"
       id="path1936"
       inkscape:path-effect="#path-effect1938"
       inkscape:original-d="m 33.422621,244.93399 c 9.131082,-0.0285 18.261881,-0.0574 27.392417,-0.0864" />
    <path
       style="fill:none;stroke:#a1a1a1;stroke-width:1.8475;stroke-linecap:butt;stroke-linejoin:miter;stroke-miterlimit:4;stroke-dasharray:none;stroke-opacity:1"
       d="M 47.162071,220.39306 60.555809,244.3291"
       id="path1940"
       inkscape:path-effect="#path-effect1942"
       inkscape:original-d="m 47.162071,220.39306 c 4.493628,7.97893 8.929402,15.95761 13.393738,23.93604" />
    <circle
       r="7.8825393"
       cy="221.51672"
       cx="47.248486"
       style="opacity:1;fill:#b3b3b3;fill-opacity:1;stroke:none;stroke-width:6.30603"
       id="path852-1-4-0-7-1" />
    <circle
       id="path852-1-4-0-7-1-2"
       style="opacity:1;fill:#b3b3b3;fill-opacity:1;stroke:none;stroke-width:6.30602"
       cx="33.336193"
       cy="245.10699"
       r="7.8825393" />
    <circle
       id="path852-1-4-0-7-1-8"
       style="opacity:1;fill:#b3b3b3;fill-opacity:1;stroke:none;stroke-width:6.30602"
       cx="60.210278"
       cy="244.24286"
       r="7.8825393" />
    <path
       id="path852-1-2-9-4-6"
       style="fill:none;stroke:#000000;stroke-width:0.277125;stroke-miterlimit:4;stroke-dasharray:none;stroke-opacity:1"
       d="m 54.635067,90.511535 c 0,1.230872 -0.650152,3.215578 -2.649376,4.09799 -2.587387,1.141994 -7.063233,1.015056 -11.458645,1.015056 -3.768748,0 -6.336916,0.136556 -8.867539,-0.736044 -2.701301,-0.93144 -3.468576,-2.674599 -3.468576,-4.132596 0,-0.912181 0.659078,-2.868396 1.814063,-3.609852 2.420562,-1.553923 5.247266,-1.747627 10.522052,-1.747627 4.486809,0 8.728806,-0.157434 11.312793,1.025735 1.903286,0.871494 2.795228,2.889594 2.795228,4.087338"
       sodipodi:nodetypes="csssssssc" />
    <path
       style="fill:#000000;stroke:none;stroke-width:1px;stroke-linecap:butt;stroke-linejoin:miter;stroke-opacity:1"
       d="m 282.85714,484.12678 c 0,0 70.03662,-18.76626 70.03662,-18.76626"
       id="path833"
       inkscape:path-effect="#path-effect835"
       inkscape:original-d="m 282.85714,484.12678 70.03662,-18.76626" />
    <path
       style="fill:#000000;stroke:none;stroke-width:1px;stroke-linecap:butt;stroke-linejoin:miter;stroke-opacity:1"
       d="m 274.28571,487.6982 c 0,0 114.28572,44.28572 114.28572,44.28572"
       id="path837"
       inkscape:path-effect="#path-effect839"
       inkscape:original-d="m 274.28571,487.6982 114.28572,44.28572" />
    <path
       style="fill:#000000;stroke:none;stroke-width:1px;stroke-linecap:butt;stroke-linejoin:miter;stroke-opacity:1"
       d="m 292.14286,473.41249 c 0,0 -135,22.14286 -135,22.14286"
       id="path848"
       inkscape:path-effect="#path-effect850"
       inkscape:original-d="m 292.14286,473.41249 -135,22.14286" />
    <circle
       id="path852"
       style="fill:#000000;stroke:none;stroke-width:1.25959"
       cx="33.500809"
       cy="11.13059"
       r="1.5744852" />
    <circle
       r="1.5744852"
       cy="11.13059"
       cx="47.273228"
       style="fill:#000000;stroke:none;stroke-width:1.25959"
       id="path852-1" />
    <circle
       r="1.5744852"
       cy="11.13059"
       cx="60.838051"
       style="fill:#000000;stroke:none;stroke-width:1.25959"
       id="path852-6" />
    <circle
       r="1.5744852"
       cy="38.467777"
       cx="33.500809"
       style="fill:#000000;stroke:none;stroke-width:1.25959"
       id="path852-9" />
    <circle
       id="path852-1-4"
       style="fill:#000000;stroke:none;stroke-width:1.25959"
       cx="47.273228"
       cy="38.467777"
       r="1.5744852" />
    <circle
       id="path852-6-8"
       style="fill:#000000;stroke:none;stroke-width:1.25959"
       cx="60.838051"
       cy="38.467777"
       r="1.5744852" />
    <circle
       r="1.5744852"
       cy="24.41853"
       cx="33.500809"
       style="fill:#000000;stroke:none;stroke-width:1.25959"
       id="path852-5" />
    <circle
       id="path852-1-2"
       style="fill:#000000;stroke:none;stroke-width:1.25959"
       cx="47.273228"
       cy="24.41853"
       r="1.5744852" />
    <circle
       id="path852-6-87"
       style="fill:#000000;stroke:none;stroke-width:1.25959"
       cx="60.838051"
       cy="24.41853"
       r="1.5744852" />
    <path
       style="fill:none;stroke:#000000;stroke-width:0.244794;stroke-linecap:butt;stroke-linejoin:miter;stroke-miterlimit:4;stroke-dasharray:none;stroke-opacity:1;marker-end:url(#Arrow1Lend)"
       d="M 47.273235,48.510463 V 63.323897"
       id="path932" />
    <circle
       r="1.5744852"
       cy="77.223579"
       cx="33.500801"
       style="fill:#000000;stroke:none;stroke-width:1.25959"
       id="path852-4" />
    <circle
       id="path852-1-24"
       style="fill:#000000;stroke:none;stroke-width:1.25959"
       cx="47.273228"
       cy="77.223579"
       r="1.5744852" />
    <circle
       id="path852-6-1"
       style="fill:#000000;stroke:none;stroke-width:1.25959"
       cx="60.838017"
       cy="77.223579"
       r="1.5744852" />
    <circle
       id="path852-9-9"
       style="fill:#000000;stroke:none;stroke-width:1.25959"
       cx="33.500801"
       cy="104.56075"
       r="1.5744852" />
    <circle
       r="1.5744852"
       cy="104.56075"
       cx="47.273228"
       style="fill:#000000;stroke:none;stroke-width:1.25959"
       id="path852-1-4-0" />
    <circle
       r="1.5744852"
       cy="104.56075"
       cx="60.838017"
       style="fill:#000000;stroke:none;stroke-width:1.25959"
       id="path852-6-8-0" />
    <circle
       id="path852-5-6"
       style="fill:#000000;stroke:none;stroke-width:1.25959"
       cx="33.500801"
       cy="90.511543"
       r="1.5744852" />
    <circle
       r="1.5744852"
       cy="90.511543"
       cx="47.273228"
       style="fill:#000000;stroke:none;stroke-width:1.25959"
       id="path852-1-2-9" />
    <circle
       r="1.5744852"
       cy="90.511543"
       cx="60.838017"
       style="fill:#000000;stroke:none;stroke-width:1.25959"
       id="path852-6-87-3" />
    <circle
       id="path852-1-2-9-4"
       style="fill:none;stroke:#000000;stroke-width:0.18475;stroke-miterlimit:4;stroke-dasharray:none;stroke-opacity:1"
       cx="47.273228"
       cy="90.511543"
       r="3.5908613" />
    <path
       sodipodi:nodetypes="csssssssssssssssc"
       d="m 66.069493,90.083924 c 0.06115,4.634419 -1.652177,4.824987 -1.652177,4.824987 -1.052914,0.832624 -8.293613,0.786584 -9.688747,1.40236 -0.813275,0.35896 0.743947,6.504009 -0.81478,10.158729 -1.233997,2.89333 -5.56123,3.49603 -6.562044,3.55241 -1.200779,0.0676 -4.471986,-0.93268 -5.414851,-3.699 -1.182956,-3.47073 -0.03384,-8.879415 -1.68032,-8.879415 -4.65936,0 -7.406708,0.35215 -10.535359,-0.726664 -3.339656,-1.151567 -3.860537,-4.100991 -3.860537,-5.903538 0,-1.127735 0.631522,-3.607346 2.059446,-4.524019 2.992577,-1.921133 5.50964,-3.38266 12.030939,-3.38266 1.170061,0 -0.04413,-4.68656 1.096108,-6.887057 1.411031,-2.723099 5.161299,-3.06771 6.433086,-3.007984 1.149332,0.05397 4.191081,0.617555 5.259496,3.254244 1.323191,3.265438 -0.285732,7.909301 0.647565,8.336645 1.538266,0.704351 8.294325,-0.0082 9.642837,0.998072 0.799408,0.596529 3.254837,1.234987 3.039338,4.48289"
       style="fill:none;stroke:#000000;stroke-width:0.277125;stroke-miterlimit:4;stroke-dasharray:none;stroke-opacity:1"
       id="path852-1-2-9-4-6-1" />
    <path
       id="path932-8"
       d="m 47.273235,119.54522 v 14.81344"
       style="fill:none;stroke:#000000;stroke-width:0.244793;stroke-linecap:butt;stroke-linejoin:miter;stroke-miterlimit:4;stroke-dasharray:none;stroke-opacity:1;marker-end:url(#Arrow1Lend-2)" />
    <path
       sodipodi:nodetypes="csssssssc"
       d="m 54.635094,165.03068 c 0,1.23088 -0.650152,3.21562 -2.649376,4.09803 -2.587385,1.14201 -7.063231,1.01506 -11.45864,1.01506 -3.768748,0 -6.336916,0.13657 -8.867542,-0.73604 -2.701298,-0.93144 -3.468575,-2.67464 -3.468575,-4.13264 0,-0.91219 0.659077,-2.86842 1.814063,-3.60989 2.420561,-1.55392 5.247268,-1.74763 10.522054,-1.74763 4.486804,0 8.728803,-0.15742 11.312789,1.02574 1.903287,0.8715 2.795227,2.88961 2.795227,4.08737"
       style="fill:none;stroke:#000000;stroke-width:0.369501;stroke-miterlimit:4;stroke-dasharray:none;stroke-opacity:1"
       id="path852-1-2-9-4-6-5" />
    <circle
       id="path852-4-8"
       style="opacity:0.3;fill:#000000;stroke:none;stroke-width:1.25959"
       cx="33.500828"
       cy="151.74295"
       r="1.5744852" />
    <circle
       r="1.5744852"
       cy="151.74295"
       cx="47.273251"
       style="opacity:0.3;fill:#000000;stroke:none;stroke-width:1.25959"
       id="path852-1-24-0" />
    <circle
       r="1.5744852"
       cy="151.74295"
       cx="60.838051"
       style="opacity:0.3;fill:#000000;stroke:none;stroke-width:1.25959"
       id="path852-6-1-1" />
    <circle
       r="1.5744852"
       cy="179.08011"
       cx="33.500828"
       style="opacity:0.3;fill:#000000;stroke:none;stroke-width:1.25959"
       id="path852-9-9-0" />
    <circle
       id="path852-1-4-0-7"
       style="opacity:0.3;fill:#000000;stroke:none;stroke-width:1.25959"
       cx="47.273251"
       cy="179.08011"
       r="1.5744852" />
    <circle
       id="path852-6-8-0-1"
       style="opacity:0.3;fill:#000000;stroke:none;stroke-width:1.25959"
       cx="60.838051"
       cy="179.08011"
       r="1.5744852" />
    <circle
       r="1.5744852"
       cy="165.0309"
       cx="33.500828"
       style="opacity:0.3;fill:#000000;stroke:none;stroke-width:1.25959"
       id="path852-5-6-7" />
    <circle
       id="path852-1-2-9-41"
       style="opacity:0.3;fill:#000000;stroke:none;stroke-width:1.25959"
       cx="47.273251"
       cy="165.0309"
       r="1.5744852" />
    <circle
       id="path852-6-87-3-0"
       style="opacity:0.3;fill:#000000;stroke:none;stroke-width:1.25959"
       cx="60.838051"
       cy="165.0309"
       r="1.5744852" />
    <circle
       r="3.5908613"
       cy="165.0309"
       cx="47.273251"
       style="fill:none;stroke:#000000;stroke-width:0.18475;stroke-miterlimit:4;stroke-dasharray:none;stroke-opacity:1"
       id="path852-1-2-9-4-4" />
    <path
       id="path852-1-2-9-4-6-1-7"
       style="fill:none;stroke:#000000;stroke-width:0.369501;stroke-miterlimit:4;stroke-dasharray:none;stroke-opacity:1"
       d="m 66.06952,164.60306 c 0.06115,4.63446 -1.652176,4.82503 -1.652176,4.82503 -1.052914,0.83264 -8.293614,0.7866 -9.688747,1.40237 -0.813275,0.35896 0.743946,6.50404 -0.81478,10.15875 -1.233997,2.89333 -5.561231,3.49604 -6.562045,3.55241 -1.200779,0.0676 -4.471983,-0.93268 -5.414847,-3.699 -1.182956,-3.47073 -0.03381,-8.87942 -1.680321,-8.87942 -4.659356,0 -7.406713,0.35214 -10.535357,-0.72668 -3.339657,-1.15156 -3.860541,-4.10102 -3.860541,-5.90358 0,-1.12774 0.631522,-3.60738 2.059448,-4.52405 2.992576,-1.92113 5.50964,-3.38266 12.030937,-3.38266 1.170061,0 -0.04416,-4.68656 1.096105,-6.88706 1.411039,-2.72309 5.161301,-3.06771 6.433089,-3.00798 1.149333,0.0539 4.19108,0.61756 5.259495,3.25425 1.323192,3.26544 -0.285732,7.9093 0.647566,8.33664 1.538265,0.70435 8.294325,-0.008 9.642836,0.99807 0.79941,0.59653 3.254837,1.23499 3.039338,4.48291"
       sodipodi:nodetypes="csssssssssssssssc" />
    <path
       style="fill:none;stroke:#000000;stroke-width:0.337169;stroke-linecap:butt;stroke-linejoin:miter;stroke-miterlimit:4;stroke-dasharray:none;stroke-opacity:1;marker-start:url(#Arrow2Mstart);marker-end:url(#Arrow1Mend)"
       d="m 42.407928,153.31847 c 1.007584,0.19128 1.987053,0.53001 2.897543,1.00205 0.37219,0.19296 0.734654,0.4093 1.055497,0.67915 0.320843,0.26985 0.6,0.59557 0.780919,0.97376 0.130279,0.27233 0.207545,0.56641 0.284109,0.85843 0.160214,0.61107 0.320588,1.2221 0.481124,1.83308"
       id="path1456"
       inkscape:path-effect="#path-effect1458"
       inkscape:original-d="m 42.407928,153.31847 c 0.672773,0.34647 2.147062,0.82101 2.897543,1.00205 0.793084,0.19131 1.117567,0.64128 1.836416,1.65291 0.240924,0.33905 0.05044,0.35432 0.284109,0.85843 0.767114,1.65463 0.270065,1.01862 0.481124,1.83308"
       sodipodi:nodetypes="csssc" />
    <text
       xml:space="preserve"
       style="font-size:6.4748px;font-family:'Segoe Print';-inkscape-font-specification:'Segoe Print';stroke-width:1.52729;stroke-miterlimit:4;stroke-dasharray:none"
       x="45.346306"
       y="153.58791"
       id="text1632"><tspan
         sodipodi:role="line"
         id="tspan1630"
         x="45.346306"
         y="153.58791"
         style="font-style:normal;font-variant:normal;font-weight:bold;font-stretch:normal;font-family:'Segoe Print';-inkscape-font-specification:'Segoe Print Bold';stroke-width:1.52729;stroke-miterlimit:4;stroke-dasharray:none">?</tspan></text>
    <path
       sodipodi:nodetypes="csssssssc"
       d="m 67.487359,244.06226 c 0,0.66732 -0.352481,1.74335 -1.436378,2.22175 -1.402763,0.61914 -3.829352,0.55033 -6.212342,0.55033 -2.043223,0 -3.435551,0.074 -4.807544,-0.39905 -1.464507,-0.505 -1.880498,-1.45006 -1.880498,-2.24054 0,-0.49454 0.357333,-1.55512 0.983504,-1.95711 1.312309,-0.84246 2.844814,-0.94748 5.704538,-0.94748 2.432537,0 4.732353,-0.0853 6.133269,0.5561 1.03188,0.47248 1.515451,1.56662 1.515451,2.216"
       style="fill:none;stroke:#000000;stroke-width:0.150245;stroke-miterlimit:4;stroke-dasharray:none;stroke-opacity:1"
       id="path852-1-2-9-4-6-0" />
    <path
       id="path932-9"
       d="m 47.273226,191.201 v 14.81343"
       style="fill:none;stroke:#000000;stroke-width:0.244793;stroke-linecap:butt;stroke-linejoin:miter;stroke-miterlimit:4;stroke-dasharray:none;stroke-opacity:1;marker-end:url(#Arrow1Lend-1)" />
    <circle
       r="3.2182631"
       cy="245.00562"
       cx="33.238003"
       style="fill:none;stroke:#000000;stroke-width:0.16558;stroke-miterlimit:4;stroke-dasharray:none;stroke-opacity:1"
       id="path852-1-2-9-4-0" />
    <path
       sodipodi:nodetypes="csssssssssssssssc"
       d="m 53.813886,221.06778 c 0.02078,1.57718 -0.562258,1.64201 -0.562258,1.64201 -0.35832,0.28336 -2.822423,0.26769 -3.297191,0.47724 -0.276774,0.12214 0.253161,2.21343 -0.277301,3.45717 -0.419944,0.98464 -1.892542,1.18974 -2.233137,1.20894 -0.408636,0.0229 -1.521871,-0.31742 -1.842734,-1.25883 -0.40258,-1.18114 -0.01155,-3.02178 -0.571827,-3.02178 -1.585642,0 -2.520598,0.11982 -3.585319,-0.2473 -1.136526,-0.3919 -1.31379,-1.39563 -1.31379,-2.00906 0,-0.38378 0.214915,-1.22764 0.700856,-1.5396 1.018411,-0.65378 1.875,-1.15116 4.094285,-1.15116 0.39818,0 -0.01506,-1.59489 0.373008,-2.34375 0.480182,-0.9267 1.75645,-1.04397 2.189261,-1.02366 0.391132,0.0184 1.426264,0.21017 1.789868,1.10746 0.450299,1.11129 -0.09722,2.69164 0.220379,2.83707 0.523488,0.2397 2.822654,-0.003 3.281581,0.33966 0.272051,0.20301 1.107654,0.42028 1.034319,1.52559"
       style="fill:none;stroke:#000000;stroke-width:0.0943095;stroke-miterlimit:4;stroke-dasharray:none;stroke-opacity:1"
       id="path852-1-2-9-4-6-1-4-9" />
    <text
       id="text962"
       y="26.374298"
       x="74.193649"
       style="font-size:9.12461px;font-family:'CMU Sans Serif';-inkscape-font-specification:'CMU Sans Serif';stroke-width:0.244409"
       xml:space="preserve"><tspan
         style="font-style:normal;font-variant:normal;font-weight:normal;font-stretch:normal;font-size:9.12461px;font-family:'CMU Serif';-inkscape-font-specification:'CMU Serif';stroke-width:0.244409"
         y="26.374298"
         x="74.193649"
         id="tspan960"
         sodipodi:role="line">Underlying Atomic Structure</tspan></text>
    <text
       xml:space="preserve"
       style="font-size:9.12461px;font-family:'CMU Sans Serif';-inkscape-font-specification:'CMU Sans Serif';stroke-width:0.244409"
       x="74.294205"
       y="91.894112"
       id="text962-6"><tspan
         sodipodi:role="line"
         id="tspan960-3"
         x="74.294205"
         y="91.894112"
         style="font-style:normal;font-variant:normal;font-weight:normal;font-stretch:normal;font-size:9.12461px;font-family:'CMU Serif';-inkscape-font-specification:'CMU Serif';stroke-width:0.244409">Crystal Hypergraph</tspan></text>
    <text
       id="text962-6-3"
       y="167.74278"
       x="74.579002"
       style="font-size:9.12461px;font-family:'CMU Sans Serif';-inkscape-font-specification:'CMU Sans Serif';stroke-width:0.244409"
       xml:space="preserve"><tspan
         style="font-style:normal;font-variant:normal;font-weight:normal;font-stretch:normal;font-size:9.12461px;font-family:'CMU Serif';-inkscape-font-specification:'CMU Serif';stroke-width:0.244409"
         y="167.74278"
         x="74.579002"
         id="tspan960-3-8"
         sodipodi:role="line">Relatives Determination</tspan></text>
    <text
       xml:space="preserve"
       style="font-size:9.12461px;font-family:'CMU Sans Serif';-inkscape-font-specification:'CMU Sans Serif';stroke-width:0.244409"
       x="74.169746"
       y="233.73953"
       id="text962-6-3-6"><tspan
         sodipodi:role="line"
         id="tspan960-3-8-7"
         x="74.169746"
         y="233.73953"
         style="font-style:normal;font-variant:normal;font-weight:normal;font-stretch:normal;font-size:9.12461px;font-family:'CMU Serif';-inkscape-font-specification:'CMU Serif';stroke-width:0.244409">Relatives Graph</tspan></text>
    <text
       id="text962-6-3-6-0"
       y="224.81897"
       x="74.810387"
       style="font-size:4.72524px;font-family:'CMU Sans Serif';-inkscape-font-specification:'CMU Sans Serif';stroke-width:0.126569"
       xml:space="preserve"><tspan
         style="font-style:normal;font-variant:normal;font-weight:normal;font-stretch:normal;font-size:4.72524px;font-family:'CMU Serif';-inkscape-font-specification:'CMU Serif';stroke-width:0.126569"
         y="224.81897"
         x="74.810387"
         id="tspan960-3-8-7-9"
         sodipodi:role="line">(Hyperedge)</tspan></text>
    <path
       id="path932-9-3-5"
       d="m 47.273226,256.08263 c 0,0 0,0 -0.172824,5.36352 -0.09494,2.94666 13.407429,1.19893 17.213938,2.27014 4.998553,1.40668 6.361254,3.60377 6.466562,4.71861 0.273785,2.89843 0.341954,6.33846 0.341954,6.33846"
       style="fill:none;stroke:#000000;stroke-width:0.244793;stroke-linecap:butt;stroke-linejoin:miter;stroke-miterlimit:4;stroke-dasharray:none;stroke-opacity:1;marker-end:url(#Arrow1Lend-1-2-7)"
       sodipodi:nodetypes="csssc" />
    <path
       sodipodi:nodetypes="csssc"
       style="fill:none;stroke:#000000;stroke-width:0.244793;stroke-linecap:butt;stroke-linejoin:miter;stroke-miterlimit:4;stroke-dasharray:none;stroke-opacity:1;marker-end:url(#Arrow1Lend-1-2-7-2)"
       d="m 47.120469,256.11318 -0.163238,5.33297 c -0.0902,2.94681 -13.407429,1.19893 -17.213938,2.27014 -4.998554,1.40668 -6.361254,3.60377 -6.466562,4.71861 -0.273785,2.89843 -0.341954,6.33846 -0.341954,6.33846"
       id="path932-9-3-5-9" />
    <text
       xml:space="preserve"
       style="font-size:3.36468px;font-family:'CMU Sans Serif';-inkscape-font-specification:'CMU Sans Serif';stroke-width:0.090125"
       x="53.193508"
       y="280.2114"
       id="text962-6-3-6-0-2"><tspan
         id="tspan1761"
         sodipodi:role="line"
         x="53.193508"
         y="280.2114"
         style="font-style:normal;font-variant:normal;font-weight:normal;font-stretch:normal;font-size:3.36468px;font-family:'CMU Serif';-inkscape-font-specification:'CMU Serif';stroke-width:0.090125">Feature Homogenization</tspan></text>
    <text
       id="text962-6-3-6-0-2-4"
       y="281.39908"
       x="6.6651435"
       style="font-size:3.36469px;font-family:'CMU Sans Serif';-inkscape-font-specification:'CMU Sans Serif';stroke-width:0.0901249"
       xml:space="preserve"><tspan
         style="font-style:normal;font-variant:normal;font-weight:normal;font-stretch:normal;font-size:3.36469px;font-family:'CMU Serif';-inkscape-font-specification:'CMU Serif';stroke-width:0.0901249"
         y="281.39908"
         x="6.6651435"
         sodipodi:role="line"
         id="tspan1761-7">Heterograph Network</tspan></text>
    <text
       id="text962-6-3-6-0-2-2"
       y="286.72452"
       x="65.857162"
       style="font-size:3.36469px;font-family:'CMU Sans Serif';-inkscape-font-specification:'CMU Sans Serif';stroke-width:0.0901249"
       xml:space="preserve"><tspan
         style="font-style:normal;font-variant:normal;font-weight:normal;font-stretch:normal;font-size:3.36469px;font-family:'CMU Serif';-inkscape-font-specification:'CMU Serif';stroke-width:0.0901249"
         y="286.72452"
         x="65.857162"
         sodipodi:role="line"
         id="tspan1761-8">MPNN</tspan></text>
    <text
       xml:space="preserve"
       style="font-size:3.36469px;font-family:'CMU Sans Serif';-inkscape-font-specification:'CMU Sans Serif';stroke-width:0.0901249"
       x="69.847351"
       y="283.0098"
       id="text962-6-3-6-0-2-2-3"><tspan
         id="tspan1761-8-4"
         sodipodi:role="line"
         x="69.847351"
         y="283.0098"
         style="font-style:normal;font-variant:normal;font-weight:normal;font-stretch:normal;font-size:3.36469px;font-family:'CMU Serif';-inkscape-font-specification:'CMU Serif';stroke-width:0.0901249">+</tspan></text>
  </g>
</svg>
